<?xml version="1.0" encoding="utf-8"?>
<!-- Svg Vector Icons : http://www.onlinewebfonts.com/icon -->
<!DOCTYPE svg PUBLIC "-//W3C//DTD SVG 1.1//EN" "http://www.w3.org/Graphics/SVG/1.1/DTD/svg11.dtd">
<svg version="1.1" xmlns="http://www.w3.org/2000/svg" xmlns:xlink="http://www.w3.org/1999/xlink" x="0px" y="0px" viewBox="0 0 1000 1000" enable-background="new 0 0 1000 1000" xml:space="preserve">
<metadata> Svg Vector Icons : http://www.onlinewebfonts.com/icon </metadata>
<g><g><path d="M500,75.3L10,206v588l490,130.7L990,794V206L500,75.3z M75.2,746l-0.4-442l392.5,104.7l0,441.9L75.2,746z M74.8,238.7L238.4,195l424.9,113.4L500,352L74.8,238.7z M924.8,746L532.7,850.5l0-441.9l130.7-34.8v159.2L794,498.2V339l131.2-35L924.8,746z M794,273.6v-0.1L369.1,160.2L500,125.3l425.2,113.4L794,273.6z"/></g></g>
</svg>