<?xml version="1.0" encoding="utf-8"?>
<!-- Svg Vector Icons : http://www.onlinewebfonts.com/icon -->
<!DOCTYPE svg PUBLIC "-//W3C//DTD SVG 1.1//EN" "http://www.w3.org/Graphics/SVG/1.1/DTD/svg11.dtd">
<svg version="1.1" xmlns="http://www.w3.org/2000/svg" xmlns:xlink="http://www.w3.org/1999/xlink" x="0px" y="0px" viewBox="0 0 1000 1000" enable-background="new 0 0 1000 1000" xml:space="preserve">
<metadata> Svg Vector Icons : http://www.onlinewebfonts.com/icon </metadata>
<g><path d="M693.4,410.9V220.3H617v190.6h-51.4v-85l-104.7,83.8v-83.8l-104.7,83.8v-83.8l-106.3,85h-25.2v316.6h502.1V410.9H693.4z M379,670.3h-75.1v-75.7H379V670.3z M379,543.8h-75.1V468H379V543.8z M513.3,670.3h-75.1v-75.7h75.1V670.3z M513.3,543.8h-75.1V468h75.1V543.8z M647.5,670.3h-75.1v-75.7h75.1V670.3z M647.5,543.8h-75.1V468h75.1V543.8z"/><path d="M500,10C229.4,10,10,229.4,10,500c0,270.6,219.4,490,490,490c270.6,0,490-219.4,490-490C990,229.4,770.6,10,500,10z M500,952.1C250.3,952.1,47.9,749.7,47.9,500C47.9,250.3,250.3,47.9,500,47.9c249.7,0,452.1,202.4,452.1,452.1C952.1,749.7,749.7,952.1,500,952.1z"/></g>
</svg>