<svg xmlns="http://www.w3.org/2000/svg" xmlns:xlink="http://www.w3.org/1999/xlink" viewBox="0 0 217.75 205.9"><defs><style>.cls-1,.cls-20,.cls-9{fill:none;}.cls-2{clip-path:url(#clip-path);}.cls-3{clip-path:url(#clip-path-2);}.cls-4{opacity:0.2;}.cls-5{clip-path:url(#clip-path-3);}.cls-6{clip-path:url(#clip-path-4);}.cls-7{clip-path:url(#clip-path-5);}.cls-8{clip-path:url(#clip-path-6);}.cls-20,.cls-9{stroke:#000;stroke-linecap:round;stroke-linejoin:round;}.cls-9{stroke-width:4px;}.cls-10{opacity:0.6;}.cls-11{clip-path:url(#clip-path-7);}.cls-12,.cls-19{fill:#11b19a;}.cls-13{clip-path:url(#clip-path-8);}.cls-14,.cls-18{fill:#453a94;}.cls-15{clip-path:url(#clip-path-9);}.cls-16{clip-path:url(#clip-path-10);}.cls-17{fill:#010101;}.cls-18{stroke:#453a94;}.cls-18,.cls-19{stroke-miterlimit:10;}.cls-19{stroke:#11b19a;}.cls-20{stroke-width:5px;}.cls-21{clip-path:url(#clip-path-11);}.cls-22{clip-path:url(#clip-path-12);}.cls-23{clip-path:url(#clip-path-13);}.cls-24{clip-path:url(#clip-path-14);}.cls-25{clip-path:url(#clip-path-15);}.cls-26{clip-path:url(#clip-path-16);}.cls-27{opacity:0.1;}.cls-28{clip-path:url(#clip-path-17);}.cls-29{clip-path:url(#clip-path-18);}.cls-30{clip-path:url(#clip-path-19);}.cls-31{clip-path:url(#clip-path-20);}.cls-32{clip-path:url(#clip-path-21);}.cls-33{clip-path:url(#clip-path-22);}.cls-34{clip-path:url(#clip-path-23);}.cls-35{clip-path:url(#clip-path-24);}.cls-36{clip-path:url(#clip-path-25);}.cls-37{clip-path:url(#clip-path-26);}.cls-38{clip-path:url(#clip-path-27);}.cls-39{clip-path:url(#clip-path-28);}</style><clipPath id="clip-path" transform="translate(-985.5 -312.4)"><rect class="cls-1" width="1247" height="1184.34"/></clipPath><clipPath id="clip-path-2" transform="translate(-985.5 -312.4)"><rect class="cls-1" width="1247" height="1184.34"/></clipPath><clipPath id="clip-path-3" transform="translate(-985.5 -312.4)"><rect class="cls-1" x="1011.45" y="392.27" width="20.14" height="88.34"/></clipPath><clipPath id="clip-path-4" transform="translate(-985.5 -312.4)"><rect class="cls-1" x="1022.02" y="435.81" width="35.67" height="4.05"/></clipPath><clipPath id="clip-path-5" transform="translate(-985.5 -312.4)"><rect class="cls-1" x="1022.02" y="443.58" width="35.67" height="4.05"/></clipPath><clipPath id="clip-path-6" transform="translate(-985.5 -312.4)"><rect class="cls-1" x="1022.02" y="455.73" width="18.68" height="4.05"/></clipPath><clipPath id="clip-path-7" transform="translate(-985.5 -312.4)"><rect class="cls-1" x="1142.86" y="360.31" width="10.67" height="10.67"/></clipPath><clipPath id="clip-path-8" transform="translate(-985.5 -312.4)"><rect class="cls-1" x="1175.78" y="441.2" width="6.17" height="6.17"/></clipPath><clipPath id="clip-path-9" transform="translate(-985.5 -312.4)"><rect class="cls-1" x="1081.63" y="385.22" width="4.5" height="4.5"/></clipPath><clipPath id="clip-path-10" transform="translate(-985.5 -312.4)"><rect class="cls-1" x="1150.63" y="355.22" width="4.5" height="4.5"/></clipPath><clipPath id="clip-path-11" transform="translate(-985.5 -312.4)"><rect class="cls-1" x="1039.28" y="483.9" width="138.12" height="31.75"/></clipPath><clipPath id="clip-path-12" transform="translate(-985.5 -312.4)"><rect class="cls-1" x="1056.26" y="313.21" width="58.27" height="67.49"/></clipPath><clipPath id="clip-path-13" transform="translate(-985.5 -312.4)"><rect class="cls-1" x="1081.76" y="368.65" width="22.6" height="2.57"/></clipPath><clipPath id="clip-path-14" transform="translate(-985.5 -312.4)"><rect class="cls-1" x="1152.32" y="399.1" width="24.61" height="1.3"/></clipPath><clipPath id="clip-path-15" transform="translate(-985.5 -312.4)"><rect class="cls-1" x="1152.32" y="401.49" width="24.61" height="1.3"/></clipPath><clipPath id="clip-path-16" transform="translate(-985.5 -312.4)"><rect class="cls-1" x="1152.32" y="403.88" width="16.07" height="1.3"/></clipPath><clipPath id="clip-path-17" transform="translate(-985.5 -312.4)"><rect class="cls-1" x="1145.28" y="417.78" width="6.02" height="6.03"/></clipPath><clipPath id="clip-path-18" transform="translate(-985.5 -312.4)"><rect class="cls-1" x="1152.32" y="390.03" width="24.61" height="1.3"/></clipPath><clipPath id="clip-path-19" transform="translate(-985.5 -312.4)"><rect class="cls-1" x="1152.32" y="392.42" width="24.61" height="1.3"/></clipPath><clipPath id="clip-path-20" transform="translate(-985.5 -312.4)"><rect class="cls-1" x="1152.32" y="394.81" width="16.07" height="1.3"/></clipPath><clipPath id="clip-path-21" transform="translate(-985.5 -312.4)"><rect class="cls-1" x="1145.28" y="390.03" width="6.02" height="6.03"/></clipPath><clipPath id="clip-path-22" transform="translate(-985.5 -312.4)"><rect class="cls-1" x="1152.32" y="408.33" width="24.61" height="1.3"/></clipPath><clipPath id="clip-path-23" transform="translate(-985.5 -312.4)"><rect class="cls-1" x="1152.32" y="410.72" width="24.61" height="1.3"/></clipPath><clipPath id="clip-path-24" transform="translate(-985.5 -312.4)"><rect class="cls-1" x="1152.32" y="413.11" width="16.07" height="1.3"/></clipPath><clipPath id="clip-path-25" transform="translate(-985.5 -312.4)"><rect class="cls-1" x="1145.28" y="408.33" width="6.02" height="6.03"/></clipPath><clipPath id="clip-path-26" transform="translate(-985.5 -312.4)"><rect class="cls-1" x="1152.32" y="417.78" width="24.61" height="1.3"/></clipPath><clipPath id="clip-path-27" transform="translate(-985.5 -312.4)"><rect class="cls-1" x="1152.32" y="420.17" width="24.61" height="1.3"/></clipPath><clipPath id="clip-path-28" transform="translate(-985.5 -312.4)"><rect class="cls-1" x="1152.32" y="422.56" width="16.07" height="1.3"/></clipPath></defs><title>Asset 1</title><g id="Layer_2" data-name="Layer 2"><g id="Layer_1-2" data-name="Layer 1"><g class="cls-2"><g class="cls-3"><g class="cls-4"><g class="cls-5"><rect x="25.95" y="79.87" width="20.14" height="88.34"/></g></g><g class="cls-4"><g class="cls-6"><path d="M1056.74,439.87H1023c-.52,0-.94-.91-.94-2s.42-2,.94-2h33.78c.52,0,1,.91,1,2s-.43,2-1,2" transform="translate(-985.5 -312.4)"/></g></g><g class="cls-4"><g class="cls-7"><path d="M1056.74,447.63H1023c-.52,0-.94-.91-.94-2s.42-2,.94-2h33.78c.52,0,1,.91,1,2s-.43,2-1,2" transform="translate(-985.5 -312.4)"/></g></g><g class="cls-4"><g class="cls-8"><path d="M1040.2,459.78h-17.69c-.27,0-.49-.9-.49-2s.22-2,.49-2h17.69c.27,0,.5.91.5,2s-.23,2-.5,2" transform="translate(-985.5 -312.4)"/></g></g><path d="M1072.13,416.34h-18.55a2.18,2.18,0,0,1-2-2.31v-20.8a2,2,0,1,1,4.06,0v18.49h16.52a2.33,2.33,0,0,1,0,4.62" transform="translate(-985.5 -312.4)"/><path d="M1033,421.79a4.47,4.47,0,1,0-4.46-4.47,4.47,4.47,0,0,0,4.46,4.47" transform="translate(-985.5 -312.4)"/><path d="M1044.86,432.38v-4.32c0-3.23-2.63-4-5.83-4h-10c-3.2,0-5.83.8-5.83,4v4.32Z" transform="translate(-985.5 -312.4)"/><path class="cls-9" d="M1075.35,415.71V475.8a6.53,6.53,0,0,1-6.3,6.75h-52.9a6.53,6.53,0,0,1-6.29-6.75V398.37a6.54,6.54,0,0,1,6.29-6.75h35.7Z" transform="translate(-985.5 -312.4)"/><path d="M1185.54,485.34H1038.9a2.5,2.5,0,0,1,0-5h146.64a2.5,2.5,0,0,1,0,5" transform="translate(-985.5 -312.4)"/><g class="cls-10"><g class="cls-11"><path class="cls-12" d="M1152,367.14h-7.67a1.5,1.5,0,0,1,0-3H1152a1.5,1.5,0,0,1,0,3" transform="translate(-985.5 -312.4)"/><path class="cls-12" d="M1148.19,371a1.5,1.5,0,0,1-1.5-1.5v-7.67a1.5,1.5,0,1,1,3,0v7.67a1.5,1.5,0,0,1-1.5,1.5" transform="translate(-985.5 -312.4)"/></g></g><g class="cls-10"><g class="cls-13"><path class="cls-14" d="M1181.08,445.15h-4.43a.87.87,0,1,1,0-1.73h4.43a.87.87,0,1,1,0,1.73" transform="translate(-985.5 -312.4)"/><path class="cls-14" d="M1178.87,447.37a.87.87,0,0,1-.87-.87v-4.43a.87.87,0,1,1,1.73,0v4.43a.86.86,0,0,1-.86.87" transform="translate(-985.5 -312.4)"/></g></g><g class="cls-10"><g class="cls-15"><path class="cls-14" d="M1085.5,388.1h-3.24a.63.63,0,0,1-.63-.63.64.64,0,0,1,.63-.64h3.24a.64.64,0,0,1,.63.64.63.63,0,0,1-.63.63" transform="translate(-985.5 -312.4)"/><path class="cls-14" d="M1083.88,389.72a.63.63,0,0,1-.63-.63v-3.24a.63.63,0,0,1,.63-.63.64.64,0,0,1,.64.63v3.24a.64.64,0,0,1-.64.63" transform="translate(-985.5 -312.4)"/></g></g><g class="cls-10"><g class="cls-16"><path class="cls-14" d="M1154.5,358.1h-3.24a.63.63,0,0,1-.63-.63.64.64,0,0,1,.63-.64h3.24a.64.64,0,0,1,.63.64.63.63,0,0,1-.63.63" transform="translate(-985.5 -312.4)"/><path class="cls-14" d="M1152.88,359.72a.63.63,0,0,1-.63-.63v-3.24a.63.63,0,0,1,.63-.63.64.64,0,0,1,.64.63v3.24a.64.64,0,0,1-.64.63" transform="translate(-985.5 -312.4)"/></g></g><path class="cls-17" d="M1127.64,349.67a.57.57,0,0,0-.57.58v6.94l-2.14-2.69a.58.58,0,0,0-.9.72l3,3.8a.56.56,0,0,0,.44.21.6.6,0,0,0,.45-.21l3-3.8a.58.58,0,0,0-.9-.72l-1.89,2.36v-6.61a.57.57,0,0,0-.57-.58" transform="translate(-985.5 -312.4)"/><path class="cls-18" d="M1127.64,349.67a.57.57,0,0,0-.57.58v6.94l-2.14-2.69a.58.58,0,0,0-.9.72l3,3.8a.56.56,0,0,0,.44.21.6.6,0,0,0,.45-.21l3-3.8a.58.58,0,0,0-.9-.72l-1.89,2.36v-6.61A.57.57,0,0,0,1127.64,349.67Z" transform="translate(-985.5 -312.4)"/><path class="cls-17" d="M1167.17,446.62a1,1,0,0,0-1,1V459.3l-3.61-4.54a1,1,0,0,0-1.51,1.21l5.12,6.41a.94.94,0,0,0,.75.36,1,1,0,0,0,.76-.36l5.12-6.41a1,1,0,0,0-.16-1.35,1,1,0,0,0-1.35.14l-3.18,4V447.59a1,1,0,0,0-1-1" transform="translate(-985.5 -312.4)"/><path class="cls-19" d="M1167.17,446.62a1,1,0,0,0-1,1V459.3l-3.61-4.54a1,1,0,0,0-1.51,1.21l5.12,6.41a.94.94,0,0,0,.75.36,1,1,0,0,0,.76-.36l5.12-6.41a1,1,0,0,0-.16-1.35,1,1,0,0,0-1.35.14l-3.18,4V447.59A1,1,0,0,0,1167.17,446.62Z" transform="translate(-985.5 -312.4)"/><path class="cls-17" d="M1079.64,390.05a.65.65,0,0,0-.64.65v7.8l-2.41-3a.62.62,0,0,0-.89-.09.64.64,0,0,0-.11.9l3.41,4.27a.64.64,0,0,0,.5.24.67.67,0,0,0,.51-.24l3.41-4.27a.64.64,0,0,0-.11-.9.63.63,0,0,0-.9.09l-2.12,2.65V390.7a.65.65,0,0,0-.65-.65" transform="translate(-985.5 -312.4)"/><path class="cls-19" d="M1079.64,390.05a.65.65,0,0,0-.64.65v7.8l-2.41-3a.62.62,0,0,0-.89-.09.64.64,0,0,0-.11.9l3.41,4.27a.64.64,0,0,0,.5.24.67.67,0,0,0,.51-.24l3.41-4.27a.64.64,0,0,0-.11-.9.63.63,0,0,0-.9.09l-2.12,2.65V390.7A.65.65,0,0,0,1079.64,390.05Z" transform="translate(-985.5 -312.4)"/><path class="cls-20" d="M1115.26,332.76a91.67,91.67,0,1,1-76.73,151.37" transform="translate(-985.5 -312.4)"/><path class="cls-20" d="M1022.21,391.34A92.05,92.05,0,0,1,1055.32,349" transform="translate(-985.5 -312.4)"/><line class="cls-20" x1="215.25" y1="170.44" x2="207.58" y2="170.44"/><line class="cls-20" x1="10.17" y1="170.44" x2="2.5" y2="170.44"/><path d="M1006,482.84a2.5,2.5,0,1,1-2.5-2.5,2.5,2.5,0,0,1,2.5,2.5" transform="translate(-985.5 -312.4)"/><g class="cls-4"><g class="cls-21"><path d="M1039.28,483.9a91,91,0,0,0,138.12,0Z" transform="translate(-985.5 -312.4)"/></g></g><path d="M1106.25,441.9a20.16,20.16,0,1,0-20.17-20.15,20.15,20.15,0,0,0,20.17,20.15" transform="translate(-985.5 -312.4)"/><path d="M1155.21,485.31V465.78c0-14.57-11.86-18.21-26.34-18.21h-45.25c-14.48,0-26.34,3.64-26.34,18.21v19.53Z" transform="translate(-985.5 -312.4)"/><path d="M1093.06,356.22a3.87,3.87,0,1,0-3.86-3.86,3.87,3.87,0,0,0,3.86,3.86" transform="translate(-985.5 -312.4)"/><path d="M1102.45,365.4v-3.74c0-2.8-2.27-3.5-5-3.5h-8.68c-2.77,0-5,.7-5,3.5v3.74Z" transform="translate(-985.5 -312.4)"/><g class="cls-4"><g class="cls-22"><polygon points="81.68 0.82 94.59 2.35 97.82 5.27 99.67 9.27 99.97 12.65 107.35 13.73 119.34 13.73 126.42 14.5 128.41 19.27 129.03 24.03 128.57 26.95 123.8 26.49 113.66 26.34 99.05 26.34 91.36 26.64 87.98 30.03 87.21 37.71 87.36 47.86 87.36 54.01 87.67 60.93 85.67 65.54 80.91 68.31 74.6 67.69 71.07 62.16 70.76 47.55 71.07 25.87 71.07 12.81 71.53 7.12 75.22 2.97 81.68 0.82"/></g></g><path class="cls-17" d="M1108.25,324.73h-19.34c-1.24,0-1.68-.45-1.68-.74v-1c0-6.22-4.73-10.58-10.82-10.58H1066c-6.47,0-11.25,4.75-11.25,10.58v51.63a8.6,8.6,0,0,0,8.66,8.41h44.87l.46,0a7.93,7.93,0,0,0,7.49-6.58,8.76,8.76,0,0,0,.18-1.79v-40.7c0-4.52-3.34-9.18-8.13-9.18m4.76,49.88a5.12,5.12,0,0,1,0,.56c0,.12,0,.24,0,.35a.45.45,0,0,1,0,.11s0,.09,0,.14a4.89,4.89,0,0,1-.27.87,5.2,5.2,0,0,1-4.73,3h-35.49a11.77,11.77,0,0,0,2.52-6.94V344.35c0-2.72,3.23-3.93,5.85-3.93h27.12c2.13,0,5.14.67,5.14,3.93Zm0-36.26a10,10,0,0,0-5.14-1.29h-27.12c-4.7,0-9.21,2.54-9.21,7.29v28.37c0,1.63-.9,6.94-6.06,6.94h-2.1a5.24,5.24,0,0,1-5.29-5.05V323c0-4.45,3.86-7.22,7.88-7.22h10.44a7.11,7.11,0,0,1,7.46,7.22v1c0,2.41,1.78,4.1,5,4.1h19.34c2.69,0,4.76,3,4.76,5.82Z" transform="translate(-985.5 -312.4)"/><g class="cls-4"><g class="cls-23"><path d="M1103.76,371.21h-21.4c-.33,0-.6-.57-.6-1.28s.27-1.28.6-1.28h21.4c.33,0,.6.57.6,1.28s-.27,1.28-.6,1.28" transform="translate(-985.5 -312.4)"/></g></g><g class="cls-4"><g class="cls-24"><path d="M1176.28,400.4H1153a.65.65,0,1,1,0-1.3h23.31a.65.65,0,0,1,0,1.3" transform="translate(-985.5 -312.4)"/></g></g><g class="cls-4"><g class="cls-25"><path d="M1176.28,402.79H1153a.65.65,0,0,1,0-1.3h23.31a.65.65,0,0,1,0,1.3" transform="translate(-985.5 -312.4)"/></g></g><g class="cls-4"><g class="cls-26"><path d="M1167.74,405.18H1153a.65.65,0,0,1,0-1.3h14.77a.65.65,0,0,1,0,1.3" transform="translate(-985.5 -312.4)"/></g></g><polygon points="162.04 90.79 160.9 89.68 160.15 90.5 162.13 92.42 165.6 88.21 164.76 87.49 162.04 90.79"/><path d="M1147.65,405.14l-2.31-2.24,1.05-1.14,1.14,1.11,2.7-3.3,1.17,1Zm-1.7-2.26,1.66,1.62,3.18-3.86-.5-.45-2.73,3.32-1.15-1.12Z" transform="translate(-985.5 -312.4)"/><g class="cls-27"><g class="cls-28"><rect x="159.78" y="105.38" width="6.03" height="6.03"/></g></g><g class="cls-4"><g class="cls-29"><path d="M1176.28,391.33H1153a.65.65,0,1,1,0-1.3h23.31a.65.65,0,1,1,0,1.3" transform="translate(-985.5 -312.4)"/></g></g><g class="cls-4"><g class="cls-30"><path d="M1176.28,393.72H1153a.65.65,0,0,1,0-1.3h23.31a.65.65,0,0,1,0,1.3" transform="translate(-985.5 -312.4)"/></g></g><g class="cls-4"><g class="cls-31"><path d="M1167.74,396.11H1153a.65.65,0,0,1,0-1.3h14.77a.65.65,0,0,1,0,1.3" transform="translate(-985.5 -312.4)"/></g></g><g class="cls-27"><g class="cls-32"><rect x="159.78" y="77.63" width="6.03" height="6.03"/></g></g><polygon points="162.04 81.72 160.9 80.61 160.15 81.43 162.13 83.36 165.6 79.14 164.76 78.42 162.04 81.72"/><path d="M1147.65,396.08l-2.31-2.25,1.05-1.13,1.14,1.1,2.7-3.29,1.17,1Zm-1.7-2.26,1.66,1.61,3.18-3.86-.5-.44-2.73,3.31-1.15-1.12Z" transform="translate(-985.5 -312.4)"/><g class="cls-4"><g class="cls-33"><path d="M1176.28,409.63H1153a.65.65,0,1,1,0-1.3h23.31a.65.65,0,1,1,0,1.3" transform="translate(-985.5 -312.4)"/></g></g><g class="cls-4"><g class="cls-34"><path d="M1176.28,412H1153a.65.65,0,1,1,0-1.3h23.31a.65.65,0,0,1,0,1.3" transform="translate(-985.5 -312.4)"/></g></g><g class="cls-4"><g class="cls-35"><path d="M1167.74,414.41H1153a.65.65,0,0,1,0-1.3h14.77a.65.65,0,0,1,0,1.3" transform="translate(-985.5 -312.4)"/></g></g><g class="cls-27"><g class="cls-36"><rect x="159.78" y="95.93" width="6.03" height="6.03"/></g></g><polygon points="162.04 100.02 160.9 98.91 160.15 99.73 162.13 101.66 165.6 97.44 164.76 96.72 162.04 100.02"/><path d="M1147.65,414.37l-2.31-2.24,1.05-1.13,1.14,1.1,2.7-3.29,1.17,1Zm-1.7-2.25,1.66,1.61,3.18-3.86-.5-.44-2.73,3.31-1.15-1.12Z" transform="translate(-985.5 -312.4)"/><g class="cls-4"><g class="cls-37"><path d="M1176.28,419.08H1153a.65.65,0,1,1,0-1.3h23.31a.65.65,0,1,1,0,1.3" transform="translate(-985.5 -312.4)"/></g></g><g class="cls-4"><g class="cls-38"><path d="M1176.28,421.47H1153a.65.65,0,0,1,0-1.3h23.31a.65.65,0,0,1,0,1.3" transform="translate(-985.5 -312.4)"/></g></g><g class="cls-4"><g class="cls-39"><path d="M1167.74,423.86H1153a.65.65,0,0,1,0-1.3h14.77a.65.65,0,0,1,0,1.3" transform="translate(-985.5 -312.4)"/></g></g><path class="cls-9" d="M1180.32,429.67a3.61,3.61,0,0,1-3.5,3.72h-31.16a3.62,3.62,0,0,1-3.5-3.72V384.29a3.62,3.62,0,0,1,3.5-3.72h31.16a3.61,3.61,0,0,1,3.5,3.72Z" transform="translate(-985.5 -312.4)"/></g></g></g></g></svg>